<svg width="89" height="100" viewBox="0 0 89 100" fill="none" xmlns="http://www.w3.org/2000/svg">
<path d="M24.1492 44.1719L30.0806 6.16324C30.2851 4.86788 32.0236 4.56108 32.6372 5.72009L39.0117 17.6511L24.1492 44.1719ZM66.3166 53.4099L60.6579 18.401C60.4875 17.3102 59.124 16.867 58.3399 17.6511L22.6833 53.4099L42.4206 64.4887C43.6478 65.1704 45.1818 65.1704 46.409 64.4887L66.3166 53.4099ZM50.295 22.8666L45.7272 14.174C45.2159 13.1855 43.8182 13.1855 43.3069 14.174L23.2288 49.967L50.295 22.8666Z" fill="#02F4BF"/>
<path d="M10.2725 88.7002H4.78809V94H2.30957V81.2031H10.958V83.2158H4.78809V86.6963H10.2725V88.7002ZM13.7002 84.4902H18.877V92.0137H21.4521V94H13.7002V92.0137H16.4072V86.4854H13.7002V84.4902ZM16.2314 82.0557C16.2314 81.8682 16.2637 81.6953 16.3281 81.5371C16.3984 81.373 16.4951 81.2324 16.6182 81.1152C16.7412 81.0039 16.8877 80.916 17.0576 80.8516C17.2334 80.7871 17.4268 80.7549 17.6377 80.7549C18.0713 80.7549 18.4141 80.8779 18.666 81.124C18.9238 81.3643 19.0527 81.6748 19.0527 82.0557C19.0527 82.4365 18.9238 82.75 18.666 82.9961C18.4141 83.2363 18.0713 83.3564 17.6377 83.3564C17.4268 83.3564 17.2334 83.3242 17.0576 83.2598C16.8877 83.1953 16.7412 83.1045 16.6182 82.9873C16.4951 82.876 16.3984 82.7412 16.3281 82.583C16.2637 82.4189 16.2314 82.2432 16.2314 82.0557ZM30.6895 84.3145C31.0586 84.3145 31.3984 84.3408 31.709 84.3936C32.0254 84.4404 32.2803 84.4932 32.4736 84.5518L32.1133 86.9863C31.791 86.9102 31.46 86.8545 31.1201 86.8193C30.7861 86.7783 30.4668 86.7578 30.1621 86.7578C29.8457 86.7578 29.5586 86.7871 29.3008 86.8457C29.0488 86.8984 28.8232 86.9805 28.624 87.0918C28.3838 87.2207 28.1787 87.3848 28.0088 87.584C27.8389 87.7832 27.6982 88.0176 27.5869 88.2871V94H25.1436V84.4902H27.4199L27.5166 85.835L27.5342 86.0459C27.9209 85.5068 28.3838 85.085 28.9229 84.7803C29.4619 84.4697 30.0508 84.3145 30.6895 84.3145ZM39.2852 94.1758C38.5527 94.1758 37.8877 94.0557 37.29 93.8154C36.6924 93.5752 36.1797 93.2471 35.752 92.8311C35.3242 92.4209 34.9932 91.9375 34.7588 91.3809C34.5303 90.8184 34.416 90.2178 34.416 89.5791V89.2275C34.416 88.501 34.5303 87.8389 34.7588 87.2412C34.9873 86.6377 35.3066 86.1191 35.7168 85.6855C36.127 85.252 36.6133 84.915 37.1758 84.6748C37.7383 84.4346 38.3506 84.3145 39.0127 84.3145C39.6982 84.3145 40.3076 84.4287 40.8408 84.6572C41.3799 84.8799 41.8369 85.1963 42.2119 85.6064C42.5811 86.0166 42.8623 86.5117 43.0557 87.0918C43.249 87.666 43.3457 88.3018 43.3457 88.999V90.0361H36.8945V90.0625C36.9766 90.4434 37.082 90.751 37.2109 90.9854C37.3398 91.2139 37.5127 91.4219 37.7295 91.6094C37.9521 91.8027 38.207 91.9521 38.4941 92.0576C38.7812 92.1631 39.0947 92.2158 39.4346 92.2158C39.915 92.2158 40.3809 92.125 40.832 91.9434C41.2832 91.7617 41.6494 91.4893 41.9307 91.126L43.1523 92.4443C42.8418 92.8838 42.3496 93.2822 41.6758 93.6396C41.002 93.9971 40.2051 94.1758 39.2852 94.1758ZM38.9951 86.292C38.7197 86.292 38.4678 86.3418 38.2393 86.4414C38.0107 86.5352 37.8115 86.6729 37.6416 86.8545C37.4658 87.0361 37.3193 87.2529 37.2021 87.5049C37.085 87.7568 36.9971 88.0381 36.9385 88.3486H40.9463V88.1553C40.9463 87.8975 40.8994 87.6543 40.8057 87.4258C40.7119 87.1973 40.583 86.998 40.4189 86.8281C40.2549 86.6641 40.0527 86.5352 39.8125 86.4414C39.5781 86.3418 39.3057 86.292 38.9951 86.292ZM54.0508 89.3418C54.0508 89.7988 54.0186 90.2324 53.9541 90.6426C53.8896 91.0469 53.7959 91.4219 53.6729 91.7676C53.5381 92.1484 53.3594 92.4941 53.1367 92.8047C52.9199 93.1152 52.6621 93.373 52.3633 93.5781C52.0938 93.7715 51.7891 93.918 51.4492 94.0176C51.1152 94.123 50.7461 94.1758 50.3418 94.1758C49.9727 94.1758 49.6357 94.1289 49.3311 94.0352C49.0322 93.9473 48.7627 93.8154 48.5225 93.6396C48.3936 93.5518 48.2734 93.4551 48.1621 93.3496C48.0508 93.2383 47.9453 93.1182 47.8457 92.9893L47.7314 94H45.5342V80.5H47.9775V85.3516C48.0947 85.2168 48.2207 85.0938 48.3555 84.9824C48.4902 84.8652 48.6338 84.7656 48.7861 84.6836C49.0029 84.5605 49.2373 84.4697 49.4893 84.4111C49.7471 84.3467 50.0254 84.3145 50.3242 84.3145C50.7344 84.3145 51.1094 84.3672 51.4492 84.4727C51.7949 84.5781 52.1025 84.7305 52.3721 84.9297C52.5889 85.082 52.7852 85.2666 52.9609 85.4834C53.1367 85.6943 53.292 85.9258 53.4268 86.1777C53.6377 86.582 53.793 87.0361 53.8926 87.54C53.998 88.0439 54.0508 88.583 54.0508 89.1572V89.3418ZM51.6074 89.1572C51.6074 88.9053 51.5957 88.6621 51.5723 88.4277C51.5488 88.1934 51.5107 87.9736 51.458 87.7686C51.3936 87.5283 51.3086 87.3145 51.2031 87.127C51.1035 86.9336 50.9512 86.7578 50.7461 86.5996C50.6113 86.5 50.459 86.4268 50.2891 86.3799C50.1191 86.3271 49.9258 86.3008 49.709 86.3008C49.416 86.3008 49.1582 86.3418 48.9355 86.4238C48.7129 86.5059 48.5225 86.626 48.3643 86.7842C48.2881 86.8604 48.2178 86.9482 48.1533 87.0479C48.0889 87.1416 48.0303 87.2441 47.9775 87.3555V91.1436C48.0479 91.29 48.127 91.4248 48.2148 91.5479C48.3086 91.665 48.417 91.7676 48.54 91.8555C48.6865 91.9668 48.8564 92.0518 49.0498 92.1104C49.249 92.1689 49.4746 92.1982 49.7266 92.1982C49.9434 92.1982 50.1396 92.1719 50.3154 92.1191C50.4912 92.0664 50.6436 91.9932 50.7725 91.8994C50.9541 91.7705 51.1006 91.6035 51.2119 91.3984C51.3291 91.1875 51.417 90.9502 51.4756 90.6865C51.5225 90.4932 51.5547 90.2822 51.5723 90.0537C51.5957 89.8252 51.6074 89.5879 51.6074 89.3418V89.1572ZM62.2334 94C62.1748 93.8828 62.125 93.748 62.084 93.5957C62.043 93.4434 62.0078 93.2822 61.9785 93.1123C61.8438 93.2588 61.6885 93.3965 61.5127 93.5254C61.3369 93.6543 61.1436 93.7656 60.9326 93.8594C60.7158 93.959 60.4785 94.0352 60.2207 94.0879C59.9629 94.1465 59.6846 94.1758 59.3857 94.1758C58.8994 94.1758 58.4512 94.1055 58.041 93.9648C57.6367 93.8242 57.2881 93.6279 56.9951 93.376C56.7021 93.124 56.4736 92.8252 56.3096 92.4795C56.1455 92.1279 56.0635 91.7471 56.0635 91.3369C56.0635 90.8096 56.166 90.3438 56.3711 89.9395C56.5762 89.5293 56.8838 89.1924 57.2939 88.9287C57.6631 88.6885 58.1172 88.5068 58.6562 88.3838C59.2012 88.2549 59.8252 88.1904 60.5283 88.1904H61.8906V87.6279C61.8906 87.4053 61.8555 87.2061 61.7852 87.0303C61.7148 86.8486 61.6094 86.6934 61.4688 86.5645C61.3223 86.4297 61.1377 86.3271 60.915 86.2568C60.6982 86.1807 60.4434 86.1426 60.1504 86.1426C59.8926 86.1426 59.6699 86.1748 59.4824 86.2393C59.2949 86.2979 59.1426 86.3828 59.0254 86.4941C58.9199 86.5938 58.8408 86.7139 58.7881 86.8545C58.7412 86.9951 58.7178 87.1504 58.7178 87.3203H56.2744C56.2744 86.916 56.3623 86.5322 56.5381 86.1689C56.7197 85.8057 56.9834 85.4863 57.3291 85.2109C57.6689 84.9355 58.085 84.7188 58.5771 84.5605C59.0752 84.3965 59.6436 84.3145 60.2822 84.3145C60.8564 84.3145 61.3896 84.3848 61.8818 84.5254C62.3799 84.666 62.8105 84.874 63.1738 85.1494C63.5371 85.4248 63.8213 85.7734 64.0264 86.1953C64.2314 86.6113 64.334 87.0947 64.334 87.6455V91.7236C64.334 92.2334 64.3662 92.6553 64.4307 92.9893C64.4951 93.3232 64.5889 93.6104 64.7119 93.8506V94H62.2334ZM59.9043 92.2861C60.1504 92.2861 60.3789 92.2568 60.5898 92.1982C60.8008 92.1396 60.9912 92.0635 61.1611 91.9697C61.3311 91.876 61.4775 91.7705 61.6006 91.6533C61.7236 91.5303 61.8203 91.4072 61.8906 91.2842V89.6494H60.6426C60.2617 89.6494 59.9365 89.6875 59.667 89.7637C59.3975 89.834 59.1777 89.9336 59.0078 90.0625C58.8379 90.1973 58.7119 90.3584 58.6299 90.5459C58.5479 90.7275 58.5068 90.9268 58.5068 91.1436C58.5068 91.3135 58.5361 91.4717 58.5947 91.6182C58.6592 91.7588 58.75 91.8789 58.8672 91.9785C58.9844 92.0723 59.1279 92.1484 59.2979 92.207C59.4736 92.2598 59.6758 92.2861 59.9043 92.2861ZM73.2373 91.3896C73.2373 91.2432 73.2021 91.1143 73.1318 91.0029C73.0674 90.8916 72.9502 90.7861 72.7803 90.6865C72.6045 90.5928 72.373 90.5049 72.0859 90.4229C71.7988 90.3408 71.4355 90.2588 70.9961 90.1768C70.4395 90.0654 69.9297 89.9277 69.4668 89.7637C69.0098 89.5938 68.6172 89.3887 68.2891 89.1484C67.9609 88.9141 67.7031 88.6416 67.5156 88.3311C67.334 88.0205 67.2432 87.6631 67.2432 87.2588C67.2432 86.8662 67.3369 86.4912 67.5244 86.1338C67.7119 85.7764 67.9814 85.4629 68.333 85.1934C68.6846 84.9238 69.1123 84.71 69.6162 84.5518C70.1201 84.3936 70.6885 84.3145 71.3213 84.3145C71.9834 84.3145 72.5781 84.3936 73.1055 84.5518C73.6328 84.7041 74.0811 84.915 74.4502 85.1846C74.8135 85.46 75.0918 85.7852 75.2852 86.1602C75.4785 86.5352 75.5752 86.9424 75.5752 87.3818H73.1318C73.1318 87.2236 73.1055 87.0771 73.0527 86.9424C73 86.8018 72.9209 86.6758 72.8154 86.5645C72.6689 86.418 72.4697 86.3008 72.2178 86.2129C71.9717 86.125 71.6729 86.0811 71.3213 86.0811C71.0225 86.0811 70.7617 86.1104 70.5391 86.1689C70.3164 86.2275 70.1348 86.3096 69.9941 86.415C69.8652 86.5088 69.7656 86.6201 69.6953 86.749C69.6309 86.8721 69.5986 87.0039 69.5986 87.1445C69.5986 87.2852 69.6279 87.417 69.6865 87.54C69.7451 87.6572 69.8506 87.7627 70.0029 87.8564C70.1494 87.9561 70.3516 88.0469 70.6094 88.1289C70.8672 88.2051 71.1953 88.2725 71.5938 88.3311C72.168 88.4248 72.7012 88.5449 73.1934 88.6914C73.6855 88.8379 74.1104 89.0254 74.4678 89.2539C74.8252 89.4883 75.1035 89.7725 75.3027 90.1064C75.5078 90.4346 75.6104 90.8271 75.6104 91.2842C75.6104 91.7061 75.5078 92.0957 75.3027 92.4531C75.1035 92.8047 74.8193 93.1094 74.4502 93.3672C74.0752 93.625 73.624 93.8271 73.0967 93.9736C72.5693 94.1143 71.9805 94.1846 71.3301 94.1846C70.6152 94.1846 69.9824 94.0908 69.4316 93.9033C68.8867 93.7158 68.4297 93.4697 68.0605 93.165C67.6914 92.8662 67.4102 92.5264 67.2168 92.1455C67.0293 91.7588 66.9355 91.3721 66.9355 90.9854H69.2646C69.2822 91.2432 69.3525 91.4658 69.4756 91.6533C69.5986 91.835 69.7568 91.9814 69.9502 92.0928C70.1436 92.21 70.3633 92.2949 70.6094 92.3477C70.8613 92.4004 71.1191 92.4268 71.3828 92.4268C71.6992 92.4268 71.9746 92.4004 72.209 92.3477C72.4492 92.2891 72.6455 92.2129 72.7979 92.1191C72.9443 92.0254 73.0527 91.917 73.123 91.7939C73.1992 91.6709 73.2373 91.5361 73.2373 91.3896ZM82.5273 94.1758C81.7949 94.1758 81.1299 94.0557 80.5322 93.8154C79.9346 93.5752 79.4219 93.2471 78.9941 92.8311C78.5664 92.4209 78.2354 91.9375 78.001 91.3809C77.7725 90.8184 77.6582 90.2178 77.6582 89.5791V89.2275C77.6582 88.501 77.7725 87.8389 78.001 87.2412C78.2295 86.6377 78.5488 86.1191 78.959 85.6855C79.3691 85.252 79.8555 84.915 80.418 84.6748C80.9805 84.4346 81.5928 84.3145 82.2549 84.3145C82.9404 84.3145 83.5498 84.4287 84.083 84.6572C84.6221 84.8799 85.0791 85.1963 85.4541 85.6064C85.8232 86.0166 86.1045 86.5117 86.2979 87.0918C86.4912 87.666 86.5879 88.3018 86.5879 88.999V90.0361H80.1367V90.0625C80.2188 90.4434 80.3242 90.751 80.4531 90.9854C80.582 91.2139 80.7549 91.4219 80.9717 91.6094C81.1943 91.8027 81.4492 91.9521 81.7363 92.0576C82.0234 92.1631 82.3369 92.2158 82.6768 92.2158C83.1572 92.2158 83.623 92.125 84.0742 91.9434C84.5254 91.7617 84.8916 91.4893 85.1729 91.126L86.3945 92.4443C86.084 92.8838 85.5918 93.2822 84.918 93.6396C84.2441 93.9971 83.4473 94.1758 82.5273 94.1758ZM82.2373 86.292C81.9619 86.292 81.71 86.3418 81.4814 86.4414C81.2529 86.5352 81.0537 86.6729 80.8838 86.8545C80.708 87.0361 80.5615 87.2529 80.4443 87.5049C80.3271 87.7568 80.2393 88.0381 80.1807 88.3486H84.1885V88.1553C84.1885 87.8975 84.1416 87.6543 84.0479 87.4258C83.9541 87.1973 83.8252 86.998 83.6611 86.8281C83.4971 86.6641 83.2949 86.5352 83.0547 86.4414C82.8203 86.3418 82.5479 86.292 82.2373 86.292Z" fill="#02F4BF"/>
</svg>
