<svg width="89" height="100" viewBox="0 0 89 100" fill="none" xmlns="http://www.w3.org/2000/svg">
<path d="M73.3783 32.3573L47.1466 6.12561C45.6458 4.6248 43.1662 4.6248 41.6654 6.12561L36.2494 11.5416L43.1662 18.4584C44.7975 17.9364 46.6246 18.2626 47.8644 19.5677C49.1695 20.8728 49.4958 22.6998 48.9737 24.3312L55.6295 30.987C57.2608 30.4649 59.0879 30.7912 60.393 32.0963C62.2201 33.8581 62.2201 36.7945 60.393 38.6215C58.5659 40.4486 55.6948 40.4486 53.8677 38.6215C52.4974 37.2512 52.1711 35.2936 52.8889 33.5971L46.6899 27.398V43.7113C47.1466 43.907 47.5382 44.2333 47.9297 44.5595C49.7568 46.3214 49.7568 49.2578 47.9297 51.0848C46.1026 52.8467 43.2315 52.8467 41.4044 51.0848C39.5773 49.2578 39.5773 46.3866 41.4044 44.5595C41.8612 44.1028 42.3832 43.7765 42.9052 43.5808V27.0718C42.3832 26.876 41.8612 26.4845 41.4044 26.093C40.0341 24.7227 39.7078 22.7651 40.4256 21.0685L33.5741 14.2822L15.6295 32.2268C14.1287 33.7276 14.1287 36.2072 15.6295 37.708L41.7959 63.8744C43.2967 65.3752 45.7763 65.3752 47.2772 63.8744L73.313 37.8385C74.8791 36.2724 74.8791 33.8581 73.3783 32.3573Z" fill="#02F4BF"/>
<path d="M37.9492 92.5059C37.791 92.6992 37.5742 92.8955 37.2988 93.0947C37.0234 93.2939 36.6982 93.4727 36.3232 93.6309C35.9424 93.7949 35.5176 93.9268 35.0488 94.0264C34.5801 94.126 34.0762 94.1758 33.5371 94.1758C33.0684 94.1758 32.626 94.1201 32.21 94.0088C31.7998 93.9033 31.4219 93.748 31.0762 93.543C30.7363 93.332 30.4258 93.0742 30.1445 92.7695C29.8691 92.4648 29.6348 92.1162 29.4414 91.7236C29.2188 91.29 29.0488 90.8008 28.9316 90.2559C28.8203 89.7109 28.7646 89.1191 28.7646 88.4805V86.7402C28.7646 86.1309 28.8203 85.5654 28.9316 85.0439C29.043 84.5166 29.2012 84.0391 29.4062 83.6113C29.5996 83.2305 29.8223 82.8877 30.0742 82.583C30.332 82.2783 30.6133 82.0146 30.918 81.792C31.2754 81.54 31.665 81.3496 32.0869 81.2207C32.5088 81.0918 32.9541 81.0273 33.4229 81.0273C34.1436 81.0273 34.7705 81.1182 35.3037 81.2998C35.8428 81.4814 36.2969 81.7422 36.666 82.082C37.0352 82.4277 37.3223 82.8467 37.5273 83.3389C37.7383 83.8311 37.876 84.3848 37.9404 85H35.5322C35.4912 84.6895 35.4268 84.4141 35.3389 84.1738C35.2568 83.9336 35.1426 83.7314 34.9961 83.5674C34.832 83.3857 34.624 83.251 34.3721 83.1631C34.126 83.0693 33.8301 83.0225 33.4844 83.0225C33.2969 83.0225 33.1152 83.0518 32.9395 83.1104C32.7637 83.1689 32.5996 83.2539 32.4473 83.3652C32.248 83.5176 32.0664 83.7168 31.9023 83.9629C31.7441 84.209 31.6123 84.499 31.5068 84.833C31.4248 85.0908 31.3604 85.3779 31.3135 85.6943C31.2725 86.0107 31.252 86.3535 31.252 86.7227V88.4805C31.252 88.9434 31.2812 89.3652 31.3398 89.7461C31.4043 90.127 31.4922 90.4639 31.6035 90.7568C31.6738 90.9268 31.7529 91.085 31.8408 91.2314C31.9346 91.3721 32.0371 91.498 32.1484 91.6094C32.3359 91.7969 32.5527 91.9404 32.7988 92.04C33.0508 92.1338 33.335 92.1836 33.6514 92.1895C33.8447 92.1895 34.0352 92.1748 34.2227 92.1455C34.4102 92.1162 34.5859 92.0752 34.75 92.0225C34.9141 91.9697 35.0576 91.9111 35.1807 91.8467C35.3096 91.7764 35.4062 91.7031 35.4707 91.627L35.4795 89.3066H33.3613V87.4609H37.9404L37.9492 92.5059ZM40.5068 81.2031H47.9072V83.1982H45.4111V92.0137H47.9072V94H40.5068V92.0137H42.9414V83.1982H40.5068V81.2031ZM60.1768 83.2158H56.2305V94H53.752V83.2158H49.8584V81.2031H60.1768V83.2158Z" fill="#02F4BF"/>
</svg>
