<svg width="96" height="129" viewBox="0 0 96 129" fill="none" xmlns="http://www.w3.org/2000/svg">
<g clip-path="url(#clip0_3824_3712)">
<path d="M26.4 14.3V54.8C21.5 49.4 18.5 42.3 18.5 34.5C18.5 26.7 21.5 19.6 26.4 14.3Z" fill="#02F4BF"/>
<path d="M29.5996 18.7L46.8996 53.4H29.5996V18.7Z" fill="#02F4BF"/>
<path d="M48.5 49.5001L31.5 15.6001H65.5L48.5 49.5001Z" fill="#02F4BF"/>
<path d="M48.5 4.5C56.3 4.5 63.4001 7.5 68.7001 12.4H28.3C33.6 7.5 40.7 4.5 48.5 4.5Z" fill="#02F4BF"/>
<path d="M67.3996 53.4H50.0996L67.3996 18.7V53.4Z" fill="#02F4BF"/>
<path d="M68.7001 56.6001C63.4001 61.5001 56.3 64.5001 48.5 64.5001C40.7 64.5001 33.6 61.5001 28.3 56.6001H68.7001Z" fill="#02F4BF"/>
<path d="M70.5996 54.7001V14.3C75.4996 19.6 78.4996 26.7 78.4996 34.5C78.4996 42.3 75.4996 49.4001 70.5996 54.7001Z" fill="#02F4BF"/>
<path d="M29.5996 18.7002L46.8996 53.4002H29.5996V18.7002Z" fill="#02F4BF"/>
<path d="M48.5 49.5001L31.5 15.6001H65.5L48.5 49.5001Z" fill="#02F4BF"/>
<path d="M50.0996 53.4002L67.3996 18.7002V53.4002H50.0996Z" fill="#02F4BF"/>
<path d="M31.5 15.6001H65.5L48.5 49.5001L31.5 15.6001Z" fill="#02F4BF"/>
</g>
<path d="M4.03613 80.7031L5.24902 85.5107L6.62891 80.7031H9.69629V93.5H7.42871V89.7119L7.53418 83.7266L5.85547 89.2812H4.63379L3.13086 83.9639L3.23633 89.7119V93.5H0.96875V80.7031H4.03613ZM17.8438 93.5C17.7852 93.3828 17.7354 93.248 17.6943 93.0957C17.6533 92.9434 17.6182 92.7822 17.5889 92.6123C17.4541 92.7588 17.2988 92.8965 17.123 93.0254C16.9473 93.1543 16.7539 93.2656 16.543 93.3594C16.3262 93.459 16.0889 93.5352 15.8311 93.5879C15.5732 93.6465 15.2949 93.6758 14.9961 93.6758C14.5098 93.6758 14.0615 93.6055 13.6514 93.4648C13.2471 93.3242 12.8984 93.1279 12.6055 92.876C12.3125 92.624 12.084 92.3252 11.9199 91.9795C11.7559 91.6279 11.6738 91.2471 11.6738 90.8369C11.6738 90.3096 11.7764 89.8438 11.9814 89.4395C12.1865 89.0293 12.4941 88.6924 12.9043 88.4287C13.2734 88.1885 13.7275 88.0068 14.2666 87.8838C14.8115 87.7549 15.4355 87.6904 16.1387 87.6904H17.501V87.1279C17.501 86.9053 17.4658 86.7061 17.3955 86.5303C17.3252 86.3486 17.2197 86.1934 17.0791 86.0645C16.9326 85.9297 16.748 85.8271 16.5254 85.7568C16.3086 85.6807 16.0537 85.6426 15.7607 85.6426C15.5029 85.6426 15.2803 85.6748 15.0928 85.7393C14.9053 85.7979 14.7529 85.8828 14.6357 85.9941C14.5303 86.0938 14.4512 86.2139 14.3984 86.3545C14.3516 86.4951 14.3281 86.6504 14.3281 86.8203H11.8848C11.8848 86.416 11.9727 86.0322 12.1484 85.6689C12.3301 85.3057 12.5938 84.9863 12.9395 84.7109C13.2793 84.4355 13.6953 84.2188 14.1875 84.0605C14.6855 83.8965 15.2539 83.8145 15.8926 83.8145C16.4668 83.8145 17 83.8848 17.4922 84.0254C17.9902 84.166 18.4209 84.374 18.7842 84.6494C19.1475 84.9248 19.4316 85.2734 19.6367 85.6953C19.8418 86.1113 19.9443 86.5947 19.9443 87.1455V91.2236C19.9443 91.7334 19.9766 92.1553 20.041 92.4893C20.1055 92.8232 20.1992 93.1104 20.3223 93.3506V93.5H17.8438ZM15.5146 91.7861C15.7607 91.7861 15.9893 91.7568 16.2002 91.6982C16.4111 91.6396 16.6016 91.5635 16.7715 91.4697C16.9414 91.376 17.0879 91.2705 17.2109 91.1533C17.334 91.0303 17.4307 90.9072 17.501 90.7842V89.1494H16.2529C15.8721 89.1494 15.5469 89.1875 15.2773 89.2637C15.0078 89.334 14.7881 89.4336 14.6182 89.5625C14.4482 89.6973 14.3223 89.8584 14.2402 90.0459C14.1582 90.2275 14.1172 90.4268 14.1172 90.6436C14.1172 90.8135 14.1465 90.9717 14.2051 91.1182C14.2695 91.2588 14.3604 91.3789 14.4775 91.4785C14.5947 91.5723 14.7383 91.6484 14.9082 91.707C15.084 91.7598 15.2861 91.7861 15.5146 91.7861ZM27.1953 81.6611V83.9902H30.7461V85.792H27.1953V89.8789C27.1953 90.2246 27.2334 90.5146 27.3096 90.749C27.3916 90.9775 27.5059 91.1592 27.6523 91.2939C27.7988 91.4346 27.9746 91.5342 28.1797 91.5928C28.3906 91.6514 28.625 91.6807 28.8828 91.6807C29.0703 91.6807 29.2607 91.6719 29.4541 91.6543C29.6533 91.6367 29.8438 91.6133 30.0254 91.584C30.2012 91.5605 30.3652 91.5342 30.5176 91.5049C30.6758 91.4756 30.8105 91.4463 30.9219 91.417L31.1592 93.0957C30.9893 93.1953 30.79 93.2832 30.5615 93.3594C30.333 93.4297 30.0898 93.4883 29.832 93.5352C29.5742 93.582 29.3047 93.6172 29.0234 93.6406C28.748 93.6699 28.4756 93.6846 28.2061 93.6846C27.6846 93.6846 27.21 93.6172 26.7822 93.4824C26.3604 93.3418 26 93.125 25.7012 92.832C25.3965 92.5449 25.1621 92.1787 24.998 91.7334C24.834 91.2822 24.752 90.7432 24.752 90.1162V85.792H22.5811V83.9902H24.752V81.6611H27.1953ZM38.1377 93.6758C37.4053 93.6758 36.7402 93.5557 36.1426 93.3154C35.5449 93.0752 35.0322 92.7471 34.6045 92.3311C34.1768 91.9209 33.8457 91.4375 33.6113 90.8809C33.3828 90.3184 33.2686 89.7178 33.2686 89.0791V88.7275C33.2686 88.001 33.3828 87.3389 33.6113 86.7412C33.8398 86.1377 34.1592 85.6191 34.5693 85.1855C34.9795 84.752 35.4658 84.415 36.0283 84.1748C36.5908 83.9346 37.2031 83.8145 37.8652 83.8145C38.5508 83.8145 39.1602 83.9287 39.6934 84.1572C40.2324 84.3799 40.6895 84.6963 41.0645 85.1064C41.4336 85.5166 41.7148 86.0117 41.9082 86.5918C42.1016 87.166 42.1982 87.8018 42.1982 88.499V89.5361H35.7471V89.5625C35.8291 89.9434 35.9346 90.251 36.0635 90.4854C36.1924 90.7139 36.3652 90.9219 36.582 91.1094C36.8047 91.3027 37.0596 91.4521 37.3467 91.5576C37.6338 91.6631 37.9473 91.7158 38.2871 91.7158C38.7676 91.7158 39.2334 91.625 39.6846 91.4434C40.1357 91.2617 40.502 90.9893 40.7832 90.626L42.0049 91.9443C41.6943 92.3838 41.2021 92.7822 40.5283 93.1396C39.8545 93.4971 39.0576 93.6758 38.1377 93.6758ZM37.8477 85.792C37.5723 85.792 37.3203 85.8418 37.0918 85.9414C36.8633 86.0352 36.6641 86.1729 36.4941 86.3545C36.3184 86.5361 36.1719 86.7529 36.0547 87.0049C35.9375 87.2568 35.8496 87.5381 35.791 87.8486H39.7988V87.6553C39.7988 87.3975 39.752 87.1543 39.6582 86.9258C39.5645 86.6973 39.4355 86.498 39.2715 86.3281C39.1074 86.1641 38.9053 86.0352 38.665 85.9414C38.4307 85.8418 38.1582 85.792 37.8477 85.792ZM51.1631 83.8145C51.5322 83.8145 51.8721 83.8408 52.1826 83.8936C52.499 83.9404 52.7539 83.9932 52.9473 84.0518L52.5869 86.4863C52.2646 86.4102 51.9336 86.3545 51.5938 86.3193C51.2598 86.2783 50.9404 86.2578 50.6357 86.2578C50.3193 86.2578 50.0322 86.2871 49.7744 86.3457C49.5225 86.3984 49.2969 86.4805 49.0977 86.5918C48.8574 86.7207 48.6523 86.8848 48.4824 87.084C48.3125 87.2832 48.1719 87.5176 48.0605 87.7871V93.5H45.6172V83.9902H47.8936L47.9902 85.335L48.0078 85.5459C48.3945 85.0068 48.8574 84.585 49.3965 84.2803C49.9355 83.9697 50.5244 83.8145 51.1631 83.8145ZM55.7949 83.9902H60.9717V91.5137H63.5469V93.5H55.7949V91.5137H58.502V85.9854H55.7949V83.9902ZM58.3262 81.5557C58.3262 81.3682 58.3584 81.1953 58.4229 81.0371C58.4932 80.873 58.5898 80.7324 58.7129 80.6152C58.8359 80.5039 58.9824 80.416 59.1523 80.3516C59.3281 80.2871 59.5215 80.2549 59.7324 80.2549C60.166 80.2549 60.5088 80.3779 60.7607 80.624C61.0186 80.8643 61.1475 81.1748 61.1475 81.5557C61.1475 81.9365 61.0186 82.25 60.7607 82.4961C60.5088 82.7363 60.166 82.8564 59.7324 82.8564C59.5215 82.8564 59.3281 82.8242 59.1523 82.7598C58.9824 82.6953 58.8359 82.6045 58.7129 82.4873C58.5898 82.376 58.4932 82.2412 58.4229 82.083C58.3584 81.9189 58.3262 81.7432 58.3262 81.5557ZM71.8965 93.5C71.8379 93.3828 71.7881 93.248 71.7471 93.0957C71.7061 92.9434 71.6709 92.7822 71.6416 92.6123C71.5068 92.7588 71.3516 92.8965 71.1758 93.0254C71 93.1543 70.8066 93.2656 70.5957 93.3594C70.3789 93.459 70.1416 93.5352 69.8838 93.5879C69.626 93.6465 69.3477 93.6758 69.0488 93.6758C68.5625 93.6758 68.1143 93.6055 67.7041 93.4648C67.2998 93.3242 66.9512 93.1279 66.6582 92.876C66.3652 92.624 66.1367 92.3252 65.9727 91.9795C65.8086 91.6279 65.7266 91.2471 65.7266 90.8369C65.7266 90.3096 65.8291 89.8438 66.0342 89.4395C66.2393 89.0293 66.5469 88.6924 66.957 88.4287C67.3262 88.1885 67.7803 88.0068 68.3193 87.8838C68.8643 87.7549 69.4883 87.6904 70.1914 87.6904H71.5537V87.1279C71.5537 86.9053 71.5186 86.7061 71.4482 86.5303C71.3779 86.3486 71.2725 86.1934 71.1318 86.0645C70.9854 85.9297 70.8008 85.8271 70.5781 85.7568C70.3613 85.6807 70.1064 85.6426 69.8135 85.6426C69.5557 85.6426 69.333 85.6748 69.1455 85.7393C68.958 85.7979 68.8057 85.8828 68.6885 85.9941C68.583 86.0938 68.5039 86.2139 68.4512 86.3545C68.4043 86.4951 68.3809 86.6504 68.3809 86.8203H65.9375C65.9375 86.416 66.0254 86.0322 66.2012 85.6689C66.3828 85.3057 66.6465 84.9863 66.9922 84.7109C67.332 84.4355 67.748 84.2188 68.2402 84.0605C68.7383 83.8965 69.3066 83.8145 69.9453 83.8145C70.5195 83.8145 71.0527 83.8848 71.5449 84.0254C72.043 84.166 72.4736 84.374 72.8369 84.6494C73.2002 84.9248 73.4844 85.2734 73.6895 85.6953C73.8945 86.1113 73.9971 86.5947 73.9971 87.1455V91.2236C73.9971 91.7334 74.0293 92.1553 74.0938 92.4893C74.1582 92.8232 74.252 93.1104 74.375 93.3506V93.5H71.8965ZM69.5674 91.7861C69.8135 91.7861 70.042 91.7568 70.2529 91.6982C70.4639 91.6396 70.6543 91.5635 70.8242 91.4697C70.9941 91.376 71.1406 91.2705 71.2637 91.1533C71.3867 91.0303 71.4834 90.9072 71.5537 90.7842V89.1494H70.3057C69.9248 89.1494 69.5996 89.1875 69.3301 89.2637C69.0605 89.334 68.8408 89.4336 68.6709 89.5625C68.501 89.6973 68.375 89.8584 68.293 90.0459C68.2109 90.2275 68.1699 90.4268 68.1699 90.6436C68.1699 90.8135 68.1992 90.9717 68.2578 91.1182C68.3223 91.2588 68.4131 91.3789 68.5303 91.4785C68.6475 91.5723 68.791 91.6484 68.9609 91.707C69.1367 91.7598 69.3389 91.7861 69.5674 91.7861ZM77.2754 80H82.5928V91.5137H85.3174V93.5H77.2754V91.5137H80.123V81.9951H77.2754V80ZM17.0527 113.675C17.0527 112.954 17.1348 112.295 17.2988 111.697C17.4688 111.1 17.7148 110.587 18.0371 110.159C18.3594 109.731 18.749 109.4 19.2061 109.166C19.6689 108.932 20.1963 108.814 20.7881 108.814C21.2861 108.814 21.7227 108.905 22.0977 109.087C22.4785 109.263 22.8154 109.515 23.1084 109.843V105H25.5605V118.5H23.3545L23.2314 117.507C22.9326 117.876 22.5811 118.163 22.1768 118.368C21.7725 118.573 21.3037 118.676 20.7705 118.676C20.1904 118.676 19.6689 118.556 19.2061 118.315C18.749 118.069 18.3623 117.732 18.0459 117.305C17.7236 116.877 17.4775 116.37 17.3076 115.784C17.1377 115.192 17.0527 114.551 17.0527 113.859V113.675ZM19.4961 113.859C19.4961 114.258 19.5283 114.63 19.5928 114.976C19.6631 115.315 19.7744 115.611 19.9268 115.863C20.0791 116.121 20.2754 116.323 20.5156 116.47C20.7559 116.616 21.0488 116.689 21.3945 116.689C21.8164 116.689 22.165 116.599 22.4404 116.417C22.7217 116.235 22.9443 115.986 23.1084 115.67V111.82C22.9443 111.498 22.7246 111.249 22.4492 111.073C22.1738 110.892 21.8281 110.801 21.4121 110.801C21.0664 110.801 20.7705 110.877 20.5244 111.029C20.2842 111.176 20.0879 111.378 19.9355 111.636C19.7832 111.899 19.6719 112.207 19.6016 112.559C19.5312 112.904 19.4961 113.276 19.4961 113.675V113.859ZM32.7324 118.676C32 118.676 31.335 118.556 30.7373 118.315C30.1396 118.075 29.627 117.747 29.1992 117.331C28.7715 116.921 28.4404 116.438 28.2061 115.881C27.9775 115.318 27.8633 114.718 27.8633 114.079V113.728C27.8633 113.001 27.9775 112.339 28.2061 111.741C28.4346 111.138 28.7539 110.619 29.1641 110.186C29.5742 109.752 30.0605 109.415 30.623 109.175C31.1855 108.935 31.7979 108.814 32.46 108.814C33.1455 108.814 33.7549 108.929 34.2881 109.157C34.8271 109.38 35.2842 109.696 35.6592 110.106C36.0283 110.517 36.3096 111.012 36.5029 111.592C36.6963 112.166 36.793 112.802 36.793 113.499V114.536H30.3418V114.562C30.4238 114.943 30.5293 115.251 30.6582 115.485C30.7871 115.714 30.96 115.922 31.1768 116.109C31.3994 116.303 31.6543 116.452 31.9414 116.558C32.2285 116.663 32.542 116.716 32.8818 116.716C33.3623 116.716 33.8281 116.625 34.2793 116.443C34.7305 116.262 35.0967 115.989 35.3779 115.626L36.5996 116.944C36.2891 117.384 35.7969 117.782 35.123 118.14C34.4492 118.497 33.6523 118.676 32.7324 118.676ZM32.4424 110.792C32.167 110.792 31.915 110.842 31.6865 110.941C31.458 111.035 31.2588 111.173 31.0889 111.354C30.9131 111.536 30.7666 111.753 30.6494 112.005C30.5322 112.257 30.4443 112.538 30.3857 112.849H34.3936V112.655C34.3936 112.397 34.3467 112.154 34.2529 111.926C34.1592 111.697 34.0303 111.498 33.8662 111.328C33.7021 111.164 33.5 111.035 33.2598 110.941C33.0254 110.842 32.7529 110.792 32.4424 110.792ZM45.0635 115.89C45.0635 115.743 45.0283 115.614 44.958 115.503C44.8936 115.392 44.7764 115.286 44.6064 115.187C44.4307 115.093 44.1992 115.005 43.9121 114.923C43.625 114.841 43.2617 114.759 42.8223 114.677C42.2656 114.565 41.7559 114.428 41.293 114.264C40.8359 114.094 40.4434 113.889 40.1152 113.648C39.7871 113.414 39.5293 113.142 39.3418 112.831C39.1602 112.521 39.0693 112.163 39.0693 111.759C39.0693 111.366 39.1631 110.991 39.3506 110.634C39.5381 110.276 39.8076 109.963 40.1592 109.693C40.5107 109.424 40.9385 109.21 41.4424 109.052C41.9463 108.894 42.5146 108.814 43.1475 108.814C43.8096 108.814 44.4043 108.894 44.9316 109.052C45.459 109.204 45.9072 109.415 46.2764 109.685C46.6396 109.96 46.918 110.285 47.1113 110.66C47.3047 111.035 47.4014 111.442 47.4014 111.882H44.958C44.958 111.724 44.9316 111.577 44.8789 111.442C44.8262 111.302 44.7471 111.176 44.6416 111.064C44.4951 110.918 44.2959 110.801 44.0439 110.713C43.7979 110.625 43.499 110.581 43.1475 110.581C42.8486 110.581 42.5879 110.61 42.3652 110.669C42.1426 110.728 41.9609 110.81 41.8203 110.915C41.6914 111.009 41.5918 111.12 41.5215 111.249C41.457 111.372 41.4248 111.504 41.4248 111.645C41.4248 111.785 41.4541 111.917 41.5127 112.04C41.5713 112.157 41.6768 112.263 41.8291 112.356C41.9756 112.456 42.1777 112.547 42.4355 112.629C42.6934 112.705 43.0215 112.772 43.4199 112.831C43.9941 112.925 44.5273 113.045 45.0195 113.191C45.5117 113.338 45.9365 113.525 46.2939 113.754C46.6514 113.988 46.9297 114.272 47.1289 114.606C47.334 114.935 47.4365 115.327 47.4365 115.784C47.4365 116.206 47.334 116.596 47.1289 116.953C46.9297 117.305 46.6455 117.609 46.2764 117.867C45.9014 118.125 45.4502 118.327 44.9229 118.474C44.3955 118.614 43.8066 118.685 43.1562 118.685C42.4414 118.685 41.8086 118.591 41.2578 118.403C40.7129 118.216 40.2559 117.97 39.8867 117.665C39.5176 117.366 39.2363 117.026 39.043 116.646C38.8555 116.259 38.7617 115.872 38.7617 115.485H41.0908C41.1084 115.743 41.1787 115.966 41.3018 116.153C41.4248 116.335 41.583 116.481 41.7764 116.593C41.9697 116.71 42.1895 116.795 42.4355 116.848C42.6875 116.9 42.9453 116.927 43.209 116.927C43.5254 116.927 43.8008 116.9 44.0352 116.848C44.2754 116.789 44.4717 116.713 44.624 116.619C44.7705 116.525 44.8789 116.417 44.9492 116.294C45.0254 116.171 45.0635 116.036 45.0635 115.89ZM50.3896 108.99H55.5664V116.514H58.1416V118.5H50.3896V116.514H53.0967V110.985H50.3896V108.99ZM52.9209 106.556C52.9209 106.368 52.9531 106.195 53.0176 106.037C53.0879 105.873 53.1846 105.732 53.3076 105.615C53.4307 105.504 53.5771 105.416 53.7471 105.352C53.9229 105.287 54.1162 105.255 54.3271 105.255C54.7607 105.255 55.1035 105.378 55.3555 105.624C55.6133 105.864 55.7422 106.175 55.7422 106.556C55.7422 106.937 55.6133 107.25 55.3555 107.496C55.1035 107.736 54.7607 107.856 54.3271 107.856C54.1162 107.856 53.9229 107.824 53.7471 107.76C53.5771 107.695 53.4307 107.604 53.3076 107.487C53.1846 107.376 53.0879 107.241 53.0176 107.083C52.9531 106.919 52.9209 106.743 52.9209 106.556ZM60.3037 113.675C60.3037 112.954 60.3916 112.295 60.5674 111.697C60.749 111.1 61.0068 110.587 61.3408 110.159C61.6748 109.731 62.0791 109.4 62.5537 109.166C63.0283 108.932 63.5645 108.814 64.1621 108.814C64.4844 108.814 64.7773 108.847 65.041 108.911C65.3105 108.97 65.5537 109.061 65.7705 109.184C65.9346 109.271 66.0869 109.377 66.2275 109.5C66.3682 109.617 66.4971 109.749 66.6143 109.896L66.7109 108.99H68.9346V118.192C68.9346 118.837 68.8232 119.411 68.6006 119.915C68.3838 120.419 68.0791 120.844 67.6865 121.189C67.2881 121.535 66.8105 121.796 66.2539 121.972C65.7031 122.153 65.0938 122.244 64.4258 122.244C64.1387 122.244 63.8311 122.215 63.5029 122.156C63.1748 122.098 62.8496 122.007 62.5273 121.884C62.2051 121.761 61.9004 121.603 61.6133 121.409C61.3262 121.222 61.0801 120.996 60.875 120.732L61.9736 119.247C62.1318 119.429 62.3018 119.587 62.4834 119.722C62.665 119.862 62.8555 119.977 63.0547 120.064C63.248 120.152 63.4473 120.217 63.6523 120.258C63.8633 120.305 64.0801 120.328 64.3027 120.328C64.6602 120.328 64.9766 120.278 65.252 120.179C65.5332 120.079 65.7676 119.933 65.9551 119.739C66.125 119.563 66.2539 119.347 66.3418 119.089C66.4355 118.831 66.4824 118.541 66.4824 118.219V117.674C66.3652 117.803 66.2422 117.92 66.1133 118.025C65.9844 118.131 65.8467 118.225 65.7002 118.307C65.4834 118.424 65.2432 118.515 64.9795 118.579C64.7217 118.644 64.4434 118.676 64.1445 118.676C63.5527 118.676 63.0195 118.556 62.5449 118.315C62.0762 118.069 61.6748 117.732 61.3408 117.305C61.0068 116.877 60.749 116.37 60.5674 115.784C60.3916 115.192 60.3037 114.551 60.3037 113.859V113.675ZM62.7559 113.859C62.7559 114.258 62.7939 114.63 62.8701 114.976C62.9521 115.315 63.0752 115.611 63.2393 115.863C63.4033 116.121 63.6113 116.323 63.8633 116.47C64.1152 116.616 64.4141 116.689 64.7598 116.689C64.9707 116.689 65.1611 116.669 65.3311 116.628C65.5068 116.587 65.665 116.528 65.8057 116.452C65.9521 116.37 66.0811 116.271 66.1924 116.153C66.3037 116.036 66.4004 115.904 66.4824 115.758V111.732C66.3945 111.568 66.2891 111.425 66.166 111.302C66.043 111.179 65.9023 111.079 65.7441 111.003C65.6094 110.938 65.46 110.889 65.2959 110.854C65.1377 110.818 64.9648 110.801 64.7773 110.801C64.4316 110.801 64.1328 110.877 63.8809 111.029C63.6289 111.176 63.4209 111.378 63.2568 111.636C63.0869 111.899 62.9609 112.207 62.8789 112.559C62.7969 112.904 62.7559 113.276 62.7559 113.675V113.859ZM71.3604 118.5V108.99H73.5752L73.7246 110.309C73.8477 110.133 73.9824 109.972 74.1289 109.825C74.2754 109.679 74.4307 109.547 74.5947 109.43C74.876 109.23 75.1836 109.078 75.5176 108.973C75.8516 108.867 76.2061 108.814 76.5811 108.814C77.0615 108.814 77.501 108.885 77.8994 109.025C78.2979 109.166 78.6436 109.389 78.9365 109.693C79.2236 110.004 79.4463 110.402 79.6045 110.889C79.7686 111.369 79.8506 111.955 79.8506 112.646V118.5H77.4072V112.682C77.4072 112.307 77.3633 111.999 77.2754 111.759C77.1934 111.513 77.0732 111.319 76.915 111.179C76.7568 111.038 76.5664 110.941 76.3438 110.889C76.1211 110.83 75.8691 110.801 75.5879 110.801C75.3535 110.801 75.1367 110.827 74.9375 110.88C74.7441 110.933 74.5713 111.012 74.4189 111.117C74.2959 111.193 74.1846 111.284 74.085 111.39C73.9854 111.495 73.8945 111.612 73.8125 111.741V118.5H71.3604Z" fill="#02F4BF"/>
<defs>
<clipPath id="clip0_3824_3712">
<rect width="60" height="60" fill="white" transform="translate(18.5 4.5)"/>
</clipPath>
</defs>
</svg>
