<svg width="89" height="100" viewBox="0 0 89 100" fill="none" xmlns="http://www.w3.org/2000/svg">
<path fill-rule="evenodd" clip-rule="evenodd" d="M75.1941 20.7639L69.5123 28.7083L63.8305 20.7639H66.9284C66.6922 14.8611 61.8162 10.1389 55.8565 10.1389C50.8277 10.1389 46.5629 13.5139 45.2153 18.1111C43.5761 17.5833 41.8813 17.25 40.1587 17.0972C40.3532 16.3611 40.6032 15.625 40.9089 14.9167C41.7285 12.9861 42.8954 11.25 44.3818 9.76389C45.8683 8.27778 47.6047 7.09722 49.5357 6.29167C51.5362 5.43056 53.6616 5 55.8565 5C58.0515 5 60.1769 5.43056 62.1773 6.27778C64.1083 7.09722 65.8448 8.26389 67.3312 9.75C68.8177 11.2361 69.9846 12.9722 70.8042 14.9028C71.5961 16.7639 72.0267 18.7361 72.0684 20.7639H75.1941Z" fill="#02F4BF"/>
<path fill-rule="evenodd" clip-rule="evenodd" d="M67.248 64.9999V61.5832H47.6604C47.7993 61.5138 47.9382 61.4582 48.0772 61.3888C50.2026 60.3749 52.1614 59.0554 53.9118 57.4443C54.1479 57.2221 54.3702 57.0138 54.5786 56.8054C54.8147 56.5693 55.0648 56.3193 55.3009 56.0554C55.5788 55.7499 55.8566 55.4304 56.1067 55.111H67.248V51.6943L76.5555 58.3471L67.248 64.9999Z" fill="#02F4BF"/>
<path fill-rule="evenodd" clip-rule="evenodd" d="M60.0241 40.3195C60.0241 43.2778 59.4406 46.1528 58.3015 48.8611C57.3291 51.1667 55.9677 53.2778 54.2728 55.125C54.0506 55.3611 53.8283 55.5973 53.606 55.8334C53.3977 56.0417 53.1893 56.2361 52.9809 56.4445C51.3416 57.9584 49.5079 59.1945 47.5075 60.1528C47.2296 60.2917 46.9379 60.4167 46.6462 60.5417C46.6323 60.5417 46.6323 60.5556 46.6184 60.5556C44.9514 61.2639 43.1593 61.6111 41.3395 61.6111H12.4443V55.1528H39.2696C47.3825 55.1528 54.0367 48.6667 54.1478 40.5556C54.1478 40.4861 54.1478 40.4167 54.1478 40.3473C54.1478 31.4861 46.9518 24.2917 38.0888 24.2917C29.2257 24.2639 22.0297 31.4445 22.0297 40.3195H25.7528L19.0986 49.625L12.4443 40.3195H16.1674C16.1674 37.3611 16.7508 34.4861 17.89 31.7778C19.0013 29.1667 20.5711 26.8195 22.5854 24.8056C24.5997 22.7917 26.9475 21.2084 29.5592 20.1111C32.2681 18.9722 35.1437 18.3889 38.1027 18.3889C38.7 18.3889 39.2835 18.4167 39.8669 18.4584C41.5895 18.5972 43.2705 18.9306 44.9097 19.4722C45.4932 19.6667 46.0627 19.875 46.6323 20.125C49.244 21.2361 51.5917 22.8056 53.606 24.8195C55.6204 26.8334 57.204 29.1806 58.3015 31.7917C59.4406 34.4861 60.0241 37.3611 60.0241 40.3195Z" fill="#02F4BF"/>
<path d="M24.7959 90.6602C24.7959 90.4316 24.7549 90.2178 24.6729 90.0186C24.5967 89.8193 24.4648 89.6318 24.2773 89.4561C24.084 89.2861 23.832 89.1309 23.5215 88.9902C23.2168 88.8438 22.8359 88.709 22.3789 88.5859C21.6699 88.3926 21.0459 88.1582 20.5068 87.8828C19.9736 87.6074 19.5371 87.3057 19.1973 86.9775C18.8574 86.6494 18.5996 86.2861 18.4238 85.8877C18.2539 85.4893 18.1689 85.0557 18.1689 84.5869C18.1689 84.0479 18.2832 83.5586 18.5117 83.1191C18.7402 82.6797 19.0566 82.3047 19.4609 81.9941C19.8652 81.6836 20.3428 81.4463 20.8936 81.2822C21.4443 81.1123 22.042 81.0273 22.6865 81.0273C23.3545 81.0273 23.9639 81.124 24.5146 81.3174C25.0713 81.5107 25.5488 81.7803 25.9473 82.126C26.3457 82.4775 26.6562 82.8936 26.8789 83.374C27.1016 83.8545 27.2129 84.3818 27.2129 84.9561H24.8047C24.793 84.6689 24.7402 84.4053 24.6465 84.165C24.5586 83.9248 24.4268 83.7168 24.251 83.541C24.0693 83.3711 23.8438 83.2393 23.5742 83.1455C23.3105 83.0459 23 82.9961 22.6426 82.9961C22.3145 82.9961 22.0215 83.0371 21.7637 83.1191C21.5117 83.1953 21.2979 83.3037 21.1221 83.4443C20.9463 83.5908 20.8115 83.7637 20.7178 83.9629C20.6299 84.1562 20.5859 84.3672 20.5859 84.5957C20.5859 84.8359 20.6445 85.0527 20.7617 85.2461C20.8848 85.4395 21.0605 85.6123 21.2891 85.7646C21.5176 85.9229 21.793 86.0664 22.1152 86.1953C22.4434 86.3242 22.8125 86.4443 23.2227 86.5557C23.6621 86.6787 24.0811 86.8281 24.4795 87.0039C24.8779 87.1797 25.2441 87.3818 25.5781 87.6104C26.082 87.9854 26.4834 88.4219 26.7822 88.9199C27.0811 89.418 27.2305 89.9922 27.2305 90.6426C27.2305 91.2051 27.1162 91.7061 26.8877 92.1455C26.665 92.5791 26.3545 92.9453 25.9561 93.2441C25.5576 93.5488 25.083 93.7803 24.5322 93.9385C23.9814 94.0908 23.3809 94.167 22.7305 94.167C22.0918 94.167 21.459 94.0732 20.832 93.8857C20.2109 93.6924 19.6689 93.4111 19.2061 93.042C18.7666 92.6787 18.418 92.251 18.1602 91.7588C17.9082 91.2666 17.7822 90.6895 17.7822 90.0273H20.208C20.2197 90.4141 20.2871 90.7451 20.4102 91.0205C20.5332 91.2959 20.7061 91.5215 20.9287 91.6973C21.1455 91.873 21.4062 92.002 21.7109 92.084C22.0215 92.166 22.3613 92.207 22.7305 92.207C23.0586 92.207 23.3486 92.1689 23.6006 92.0928C23.8584 92.0166 24.0752 91.9111 24.251 91.7764C24.4268 91.6416 24.5615 91.4805 24.6553 91.293C24.749 91.0996 24.7959 90.8887 24.7959 90.6602ZM33.2598 92.2246C33.5 92.2246 33.7285 92.1895 33.9453 92.1191C34.1621 92.0488 34.3525 91.9492 34.5166 91.8203C34.6807 91.6914 34.8066 91.5361 34.8945 91.3545C34.9883 91.1729 35.0293 90.9707 35.0176 90.748H37.3203C37.332 91.2402 37.2295 91.6973 37.0127 92.1191C36.8018 92.541 36.5117 92.9043 36.1426 93.209C35.7734 93.5137 35.3428 93.7539 34.8506 93.9297C34.3643 94.0996 33.8486 94.1846 33.3037 94.1846C32.5654 94.1846 31.918 94.0615 31.3613 93.8154C30.8047 93.5635 30.3418 93.2207 29.9727 92.7871C29.5977 92.3535 29.3135 91.8467 29.1201 91.2666C28.9326 90.6807 28.8389 90.0537 28.8389 89.3857V89.1221C28.8389 88.4541 28.9326 87.8301 29.1201 87.25C29.3076 86.6641 29.5889 86.1543 29.9639 85.7207C30.3389 85.2871 30.8018 84.9443 31.3525 84.6924C31.9092 84.4404 32.5537 84.3145 33.2861 84.3145C33.8721 84.3145 34.4141 84.4023 34.9121 84.5781C35.4102 84.7539 35.8408 85 36.2041 85.3164C36.5615 85.6387 36.8398 86.0283 37.0391 86.4854C37.2383 86.9365 37.332 87.4434 37.3203 88.0059H35.0176C35.0293 87.7715 34.9941 87.5488 34.9121 87.3379C34.8301 87.127 34.71 86.9453 34.5518 86.793C34.3936 86.6406 34.2031 86.5205 33.9805 86.4326C33.7578 86.3389 33.5146 86.292 33.251 86.292C32.8643 86.292 32.5449 86.3711 32.293 86.5293C32.041 86.6875 31.8418 86.8984 31.6953 87.1621C31.543 87.4258 31.4346 87.7275 31.3701 88.0674C31.3115 88.4072 31.2822 88.7588 31.2822 89.1221V89.3857C31.2822 89.7549 31.3115 90.1123 31.3701 90.458C31.4287 90.7979 31.5342 91.0967 31.6865 91.3545C31.833 91.6182 32.0322 91.8291 32.2842 91.9873C32.542 92.1455 32.8672 92.2246 33.2598 92.2246ZM46.6895 84.3145C47.0586 84.3145 47.3984 84.3408 47.709 84.3936C48.0254 84.4404 48.2803 84.4932 48.4736 84.5518L48.1133 86.9863C47.791 86.9102 47.46 86.8545 47.1201 86.8193C46.7861 86.7783 46.4668 86.7578 46.1621 86.7578C45.8457 86.7578 45.5586 86.7871 45.3008 86.8457C45.0488 86.8984 44.8232 86.9805 44.624 87.0918C44.3838 87.2207 44.1787 87.3848 44.0088 87.584C43.8389 87.7832 43.6982 88.0176 43.5869 88.2871V94H41.1436V84.4902H43.4199L43.5166 85.835L43.5342 86.0459C43.9209 85.5068 44.3838 85.085 44.9229 84.7803C45.4619 84.4697 46.0508 84.3145 46.6895 84.3145ZM56.876 94L56.7354 92.6641C56.4131 93.1387 56.0234 93.5107 55.5664 93.7803C55.1152 94.0498 54.6201 94.1846 54.0811 94.1846C53.5889 94.1846 53.1377 94.1084 52.7275 93.9561C52.3174 93.8037 51.9658 93.5605 51.6729 93.2266C51.3799 92.8984 51.1514 92.4795 50.9873 91.9697C50.8291 91.4541 50.75 90.8359 50.75 90.1152V84.4902H53.1934V90.1328C53.1934 90.5195 53.2197 90.8447 53.2725 91.1084C53.3311 91.3721 53.4219 91.583 53.5449 91.7412C53.668 91.9053 53.8291 92.0225 54.0283 92.0928C54.2275 92.1631 54.4707 92.1982 54.7578 92.1982C55.0156 92.1982 55.2471 92.1719 55.4521 92.1191C55.6631 92.0664 55.8477 91.9902 56.0059 91.8906C56.1406 91.8027 56.2607 91.6973 56.3662 91.5742C56.4717 91.4512 56.5625 91.3135 56.6387 91.1611V84.4902H59.0908V94H56.876ZM63.002 84.4902L63.0723 85.6416C63.2539 85.2314 63.5029 84.9092 63.8193 84.6748C64.1416 84.4346 64.5312 84.3145 64.9883 84.3145C65.2109 84.3145 65.4102 84.3408 65.5859 84.3936C65.7617 84.4463 65.9141 84.5283 66.043 84.6396C66.1426 84.7217 66.2275 84.8213 66.2979 84.9385C66.374 85.0498 66.4385 85.1787 66.4912 85.3252C66.5732 85.1846 66.6641 85.0586 66.7637 84.9473C66.8691 84.8301 66.9834 84.7305 67.1064 84.6484C67.2588 84.543 67.4316 84.4609 67.625 84.4023C67.8184 84.3438 68.0293 84.3145 68.2578 84.3145C68.5449 84.3145 68.8115 84.3672 69.0576 84.4727C69.3096 84.5781 69.5293 84.7451 69.7168 84.9736C69.8984 85.208 70.0391 85.5098 70.1387 85.8789C70.2441 86.2422 70.2969 86.6875 70.2969 87.2148V94H68.0732V87.2061C68.0732 87.0244 68.0527 86.875 68.0117 86.7578C67.9766 86.6406 67.9268 86.5469 67.8623 86.4766C67.7979 86.4121 67.7217 86.3682 67.6338 86.3447C67.5518 86.3154 67.4668 86.3008 67.3789 86.3008C67.2852 86.3008 67.2002 86.3125 67.124 86.3359C67.0537 86.3594 66.9863 86.3916 66.9219 86.4326C66.8691 86.4736 66.8223 86.5205 66.7812 86.5732C66.7402 86.6201 66.7051 86.6758 66.6758 86.7402C66.6758 86.752 66.6758 86.7783 66.6758 86.8193C66.6758 86.8604 66.6758 86.916 66.6758 86.9863V94H64.5225V87.1973C64.5225 87.0156 64.5049 86.8662 64.4697 86.749C64.4346 86.6318 64.3877 86.541 64.3291 86.4766C64.2646 86.4121 64.1914 86.3682 64.1094 86.3447C64.0273 86.3154 63.9395 86.3008 63.8457 86.3008C63.7402 86.3008 63.6465 86.3184 63.5645 86.3535C63.4824 86.3887 63.4092 86.4385 63.3447 86.5029C63.2979 86.5498 63.2568 86.6055 63.2217 86.6699C63.1865 86.7344 63.1543 86.8047 63.125 86.8809V94H60.9014V84.4902H63.002Z" fill="#02F4BF"/>
</svg>
